<svg width="429" height="101.31577401412162" viewBox="0 0 370.5 87.49998664855957" class="looka-1j8o68f"><defs id="SvgjsDefs1384"></defs><g id="SvgjsG1385" featurekey="e7LhAk-0" transform="matrix(0.875,0,0,0.875,0,0)" fill="#521262"><g xmlns="http://www.w3.org/2000/svg"><g><path d="M55.021,5.021c0,2.772-2.248,5.021-5.021,5.021c-2.773,0-5.021-2.249-5.021-5.021C44.978,2.248,47.226,0,49.999,0    C52.771,0,55.021,2.248,55.021,5.021"></path><path d="M53.678,19.105c0,2.029-1.646,3.678-3.679,3.678c-2.029,0-3.678-1.648-3.678-3.678c0-2.031,1.648-3.678,3.678-3.678    C52.032,15.428,53.678,17.075,53.678,19.105"></path><path d="M52.292,31.429c0,1.265-1.026,2.292-2.293,2.292c-1.265,0-2.292-1.026-2.292-2.292c0-1.266,1.027-2.292,2.292-2.292    C51.266,29.138,52.292,30.164,52.292,31.429"></path><path d="M51.378,42.285c0,0.761-0.616,1.378-1.379,1.378c-0.76,0-1.378-0.617-1.378-1.378c0-0.761,0.618-1.378,1.378-1.378    C50.762,40.906,51.378,41.523,51.378,42.285"></path><path d="M55.021,94.979c0-2.771-2.248-5.021-5.021-5.021c-2.773,0-5.021,2.249-5.021,5.021c0,2.773,2.248,5.021,5.021,5.021    C52.773,100,55.021,97.752,55.021,94.979"></path><path d="M53.678,80.895c0-2.028-1.646-3.678-3.679-3.678c-2.029,0-3.678,1.648-3.678,3.678c0,2.031,1.648,3.679,3.678,3.679    C52.032,84.572,53.678,82.926,53.678,80.895"></path><path d="M52.292,68.57c0-1.266-1.026-2.291-2.293-2.291c-1.265,0-2.292,1.025-2.292,2.291s1.027,2.291,2.292,2.291    C51.266,70.861,52.292,69.836,52.292,68.57"></path><path d="M51.378,57.715c0-0.761-0.616-1.377-1.379-1.377c-0.76,0-1.378,0.616-1.378,1.377c0,0.762,0.618,1.379,1.378,1.379    C50.762,59.094,51.378,58.477,51.378,57.715"></path><path d="M94.979,55.021c-2.771,0-5.02-2.248-5.02-5.021c0-2.773,2.247-5.021,5.02-5.021C97.75,44.979,100,47.227,100,50    C100,52.773,97.751,55.021,94.979,55.021"></path><path d="M80.896,53.68c-2.03,0-3.68-1.646-3.68-3.679c0-2.031,1.648-3.68,3.68-3.68c2.028,0,3.678,1.648,3.678,3.68    C84.572,52.034,82.925,53.68,80.896,53.68"></path><path d="M68.57,52.293c-1.266,0-2.293-1.025-2.293-2.292c0-1.265,1.027-2.294,2.293-2.294c1.267,0,2.291,1.029,2.291,2.294    C70.861,51.268,69.837,52.293,68.57,52.293"></path><path d="M57.716,51.379c-0.76,0-1.378-0.618-1.378-1.379s0.618-1.377,1.378-1.377c0.761,0,1.38,0.616,1.38,1.377    S58.477,51.379,57.716,51.379"></path><path d="M5.021,55.021c2.772,0,5.021-2.248,5.021-5.021c0-2.773-2.249-5.021-5.021-5.021C2.248,44.979,0,47.227,0,50    C0,52.773,2.248,55.021,5.021,55.021"></path><path d="M19.106,53.68c2.03,0,3.678-1.646,3.678-3.679c0-2.031-1.648-3.68-3.678-3.68c-2.033,0-3.679,1.648-3.679,3.68    C15.428,52.034,17.073,53.68,19.106,53.68"></path><path d="M31.431,52.293c1.264,0,2.29-1.025,2.29-2.292c0-1.265-1.026-2.294-2.29-2.294c-1.268,0-2.293,1.029-2.293,2.294    C29.138,51.268,30.163,52.293,31.431,52.293"></path><path d="M42.285,51.379c0.761,0,1.378-0.618,1.378-1.379s-0.617-1.377-1.378-1.377c-0.761,0-1.378,0.616-1.378,1.377    S41.524,51.379,42.285,51.379"></path><path d="M21.745,14.644c1.96,1.959,1.96,5.138-0.002,7.099c-1.96,1.962-5.139,1.962-7.099,0.002c-1.96-1.961-1.962-5.14,0-7.101    S19.785,12.685,21.745,14.644"></path><path d="M30.755,25.552c1.436,1.435,1.438,3.765,0,5.202c-1.436,1.437-3.768,1.437-5.201,0c-1.439-1.435-1.436-3.765,0-5.202    C26.991,24.116,29.317,24.116,30.755,25.552"></path><path d="M38.489,35.247c0.894,0.895,0.894,2.346,0,3.242c-0.895,0.895-2.348,0.896-3.242,0c-0.896-0.896-0.896-2.348,0-3.242    C36.144,34.352,37.595,34.352,38.489,35.247"></path><path d="M45.519,43.569c0.537,0.537,0.539,1.412,0,1.95c-0.537,0.537-1.412,0.537-1.951,0c-0.534-0.539-0.534-1.413,0-1.95    C44.107,43.03,44.981,43.032,45.519,43.569"></path><path d="M85.354,78.254c-1.959-1.959-5.139-1.961-7.1,0s-1.961,5.141,0,7.102c1.959,1.959,5.139,1.961,7.1,0    C87.316,83.395,87.316,80.214,85.354,78.254"></path><path d="M74.445,69.244c-1.436-1.436-3.764-1.438-5.2,0c-1.437,1.436-1.438,3.767,0,5.201c1.437,1.437,3.767,1.437,5.2,0    C75.884,73.01,75.884,70.68,74.445,69.244"></path><path d="M64.752,61.51c-0.893-0.895-2.345-0.895-3.24,0c-0.896,0.896-0.898,2.348-0.002,3.242c0.895,0.896,2.348,0.895,3.242,0    C65.646,63.855,65.646,62.404,64.752,61.51"></path><path d="M56.43,54.48c-0.537-0.537-1.408-0.537-1.951,0c-0.533,0.537-0.533,1.41,0,1.949c0.541,0.536,1.414,0.536,1.951,0    C56.968,55.891,56.968,55.02,56.43,54.48"></path><path d="M85.354,21.744c-1.959,1.959-5.138,1.961-7.1,0c-1.961-1.961-1.961-5.14,0-7.102c1.959-1.959,5.139-1.961,7.1,0    C87.316,16.606,87.316,19.785,85.354,21.744"></path><path d="M74.445,30.754c-1.434,1.435-3.762,1.437-5.2,0c-1.437-1.435-1.437-3.767,0-5.202c1.437-1.436,3.769-1.436,5.2,0    C75.887,26.989,75.884,29.319,74.445,30.754"></path><path d="M64.752,38.488c-0.893,0.895-2.345,0.897-3.242,0c-0.894-0.894-0.894-2.346,0.002-3.243c0.893-0.895,2.348-0.893,3.24,0    C65.646,36.144,65.646,37.593,64.752,38.488"></path><path d="M56.43,45.518c-0.537,0.537-1.408,0.539-1.947,0c-0.537-0.539-0.537-1.413-0.004-1.95c0.541-0.537,1.414-0.537,1.951,0    C56.971,44.107,56.968,44.98,56.43,45.518"></path><path d="M21.747,85.354c1.958-1.959,1.961-5.139,0-7.102c-1.962-1.961-5.142-1.959-7.103,0c-1.962,1.963-1.96,5.141,0,7.102    C16.606,87.314,19.785,87.314,21.747,85.354"></path><path d="M30.757,74.445c1.436-1.437,1.437-3.766-0.002-5.203c-1.434-1.434-3.766-1.434-5.198,0    c-1.44,1.438-1.438,3.768-0.003,5.203C26.993,75.884,29.317,75.884,30.757,74.445"></path><path d="M38.49,64.751c0.893-0.896,0.896-2.345-0.001-3.242c-0.895-0.894-2.348-0.895-3.241,0c-0.897,0.896-0.894,2.349,0,3.242    C36.146,65.646,37.595,65.646,38.49,64.751"></path><path d="M45.519,56.43c0.539-0.537,0.54-1.41,0-1.951c-0.537-0.537-1.411-0.537-1.951,0c-0.534,0.539-0.534,1.412,0.003,1.951    C44.108,56.967,44.981,56.967,45.519,56.43"></path><path d="M67.313,15.056c-0.513,1.216-1.912,1.787-3.127,1.273c-1.218-0.512-1.791-1.914-1.276-3.13    c0.513-1.216,1.916-1.787,3.131-1.275C67.255,12.438,67.827,13.84,67.313,15.056"></path><path d="M61.993,26.041c-0.373,0.89-1.4,1.31-2.292,0.935c-0.891-0.376-1.309-1.405-0.936-2.293    c0.375-0.892,1.405-1.31,2.293-0.934C61.954,24.123,62.37,25.149,61.993,26.041"></path><path d="M57.245,35.614c-0.233,0.555-0.873,0.815-1.429,0.581c-0.555-0.233-0.816-0.874-0.582-1.429    c0.232-0.555,0.873-0.815,1.429-0.581C57.221,34.418,57.479,35.057,57.245,35.614"></path><path d="M37.091,86.801c0.512-1.215-0.06-2.617-1.276-3.131c-1.217-0.511-2.616,0.061-3.128,1.275    c-0.515,1.218,0.057,2.615,1.271,3.13C35.175,88.588,36.578,88.016,37.091,86.801"></path><path d="M41.233,75.318c0.375-0.889-0.044-1.916-0.935-2.293c-0.892-0.375-1.92,0.043-2.294,0.936    c-0.376,0.891,0.043,1.916,0.934,2.291C39.833,76.628,40.857,76.209,41.233,75.318"></path><path d="M44.766,65.234c0.233-0.555-0.026-1.195-0.582-1.43s-1.195,0.026-1.43,0.581c-0.235,0.556,0.026,1.195,0.582,1.431    C43.892,66.051,44.532,65.789,44.766,65.234"></path><path d="M84.943,67.316c-1.215-0.514-1.786-1.914-1.272-3.129c0.513-1.22,1.913-1.789,3.129-1.275    c1.218,0.512,1.786,1.914,1.272,3.129C87.561,67.257,86.16,67.828,84.943,67.316"></path><path d="M73.962,61.994c-0.894-0.373-1.312-1.4-0.938-2.293c0.377-0.889,1.406-1.309,2.297-0.934s1.31,1.402,0.935,2.293    C75.879,61.953,74.852,62.369,73.962,61.994"></path><path d="M64.389,57.246c-0.558-0.235-0.816-0.874-0.582-1.43c0.233-0.557,0.875-0.816,1.428-0.582    c0.555,0.231,0.815,0.875,0.582,1.43C65.582,57.221,64.941,57.479,64.389,57.246"></path><path d="M13.201,37.09c1.215,0.512,2.615-0.059,3.129-1.275c0.512-1.215-0.058-2.618-1.274-3.131    c-1.217-0.512-2.617,0.057-3.129,1.274C11.413,35.175,11.984,36.578,13.201,37.09"></path><path d="M24.682,41.234c0.891,0.375,1.917-0.042,2.292-0.933c0.375-0.891-0.043-1.918-0.936-2.293    c-0.891-0.375-1.918,0.042-2.291,0.934C23.37,39.834,23.788,40.859,24.682,41.234"></path><path d="M34.766,44.766c0.554,0.234,1.193-0.025,1.427-0.582c0.236-0.554-0.025-1.195-0.581-1.429    c-0.553-0.235-1.192,0.026-1.427,0.583C33.95,43.894,34.212,44.533,34.766,44.766"></path><path d="M37.534,13.046c0.495,1.223-0.092,2.616-1.313,3.114c-1.221,0.499-2.617-0.089-3.112-1.312    c-0.498-1.22,0.087-2.616,1.312-3.115C35.643,11.236,37.036,11.824,37.534,13.046"></path><path d="M41.538,24.577c0.365,0.893-0.064,1.918-0.96,2.282c-0.897,0.364-1.919-0.066-2.283-0.961    c-0.364-0.896,0.067-1.917,0.961-2.282C40.154,23.25,41.174,23.68,41.538,24.577"></path><path d="M44.95,34.703c0.225,0.56-0.042,1.195-0.6,1.422c-0.56,0.228-1.196-0.04-1.423-0.599c-0.227-0.558,0.04-1.193,0.599-1.421    C44.086,33.877,44.722,34.145,44.95,34.703"></path><path d="M66.893,85.15c-0.496-1.223-1.891-1.811-3.113-1.313c-1.223,0.498-1.812,1.894-1.313,3.113    c0.496,1.223,1.892,1.811,3.115,1.313C66.803,87.768,67.389,86.373,66.893,85.15"></path><path d="M61.704,74.104c-0.365-0.896-1.386-1.326-2.283-0.963c-0.894,0.365-1.325,1.389-0.961,2.283    c0.364,0.896,1.39,1.326,2.283,0.961C61.641,76.02,62.068,74.999,61.704,74.104"></path><path d="M57.072,64.473c-0.229-0.557-0.864-0.826-1.424-0.598c-0.557,0.227-0.826,0.863-0.597,1.421    c0.226,0.558,0.86,0.827,1.419,0.599C57.032,65.668,57.3,65.032,57.072,64.473"></path><path d="M86.954,37.534c-1.224,0.498-2.616-0.089-3.115-1.313c-0.498-1.222,0.091-2.618,1.313-3.115    c1.221-0.498,2.617,0.091,3.113,1.313C88.764,35.642,88.175,37.037,86.954,37.534"></path><path d="M75.426,41.537c-0.894,0.366-1.917-0.063-2.283-0.96c-0.363-0.895,0.067-1.918,0.961-2.282    c0.895-0.364,1.92,0.067,2.281,0.961C76.751,40.153,76.318,41.173,75.426,41.537"></path><path d="M65.297,44.95c-0.559,0.227-1.195-0.04-1.422-0.599c-0.229-0.558,0.04-1.194,0.6-1.421    c0.558-0.229,1.194,0.039,1.422,0.597C66.122,44.088,65.855,44.721,65.297,44.95"></path><path d="M14.851,66.893c1.223-0.498,1.81-1.892,1.313-3.115c-0.498-1.223-1.894-1.809-3.115-1.313    c-1.225,0.499-1.811,1.895-1.313,3.115C12.233,66.803,13.627,67.391,14.851,66.893"></path><path d="M25.898,61.703c0.894-0.363,1.327-1.385,0.962-2.281c-0.364-0.896-1.391-1.326-2.281-0.961    c-0.897,0.364-1.326,1.389-0.963,2.283C23.981,61.639,25.001,62.066,25.898,61.703"></path><path d="M35.529,57.07c0.556-0.229,0.827-0.861,0.597-1.424c-0.228-0.557-0.863-0.824-1.421-0.598    c-0.56,0.229-0.826,0.862-0.599,1.421C34.334,57.03,34.969,57.297,35.529,57.07"></path></g></g></g><g id="SvgjsG1386" featurekey="Qg0WB5-0" transform="matrix(2.5552416229658044,0,0,2.5552416229658044,103.911613342333,13.97999714403676)" fill="#521262"><path d="M1.6 5.609999999999999 q0 -0.21 0.115 -0.335 t0.325 -0.125 l6.64 0 q0.88 0 1.66 0.335 t1.365 0.92 t0.925 1.37 t0.34 1.685 q0 0.75 -0.235 1.395 t-0.665 1.155 q0.72 0.66 1.14 1.57 t0.42 1.93 q0 0.91 -0.35 1.725 t-0.945 1.43 t-1.39 0.975 t-1.675 0.36 l-7.23 0 q-0.2 0 -0.32 -0.105 t-0.12 -0.325 l0 -13.96 z M9.66 15.36 q0 -0.3 -0.115 -0.6 t-0.32 -0.535 t-0.49 -0.385 t-0.615 -0.15 l-2.64 0 l0 3.34 l2.64 0 q0.33 0 0.61 -0.14 t0.49 -0.375 t0.325 -0.535 t0.115 -0.62 z M9.13 9.55 q0 -0.3 -0.11 -0.56 t-0.31 -0.46 t-0.48 -0.315 t-0.61 -0.115 l-2.14 0 l0 2.9 l2.11 0 q0.34 0 0.625 -0.105 t0.485 -0.3 t0.315 -0.46 t0.115 -0.585 z M25.939999999999998 18.48 q-0.88 0.81 -1.98 1.265 t-2.33 0.455 q-1.37 0 -2.59 -0.5 t-2.14 -1.385 t-1.46 -2.085 t-0.54 -2.61 q0 -0.88 0.215 -1.705 t0.61 -1.545 t0.96 -1.325 t1.265 -1.035 t1.52 -0.67 t1.73 -0.24 q0.83 0 1.61 0.22 t1.465 0.62 t1.255 0.96 t0.98 1.225 t0.635 1.42 t0.225 1.555 q0 0.52 -0.015 0.85 t-0.155 0.525 t-0.465 0.27 t-0.955 0.075 l-7.2 0 q0.1 0.64 0.405 1.07 t0.705 0.685 t0.85 0.365 t0.85 0.11 q0.36 0 0.74 -0.075 t0.735 -0.2 t0.65 -0.29 t0.475 -0.345 q0.16 -0.13 0.275 -0.195 t0.245 -0.065 t0.265 0.09 t0.305 0.26 l1.06 1.2 q0.11 0.13 0.14 0.235 t0.03 0.215 q0 0.2 -0.11 0.345 t-0.26 0.255 z M21.13 10.15 q-0.39 0 -0.755 0.155 t-0.685 0.415 t-0.575 0.59 t-0.415 0.67 l5.11 0 q-0.21 -0.39 -0.455 -0.72 t-0.56 -0.58 t-0.72 -0.39 t-0.945 -0.14 z M29.459999999999997 4.289999999999999 q0 -0.32 0.16 -0.54 t0.55 -0.22 l2.45 0 q0.1 0 0.21 0.055 t0.205 0.155 t0.16 0.24 t0.065 0.31 l0 14.94 q0 0.38 -0.215 0.575 t-0.555 0.195 l-2.32 0 q-0.39 0 -0.55 -0.195 t-0.16 -0.575 l0 -14.94 z M35.660000000000004 4.289999999999999 q0 -0.32 0.16 -0.54 t0.55 -0.22 l2.45 0 q0.1 0 0.21 0.055 t0.205 0.155 t0.16 0.24 t0.065 0.31 l0 14.94 q0 0.38 -0.215 0.575 t-0.555 0.195 l-2.32 0 q-0.39 0 -0.55 -0.195 t-0.16 -0.575 l0 -14.94 z M43.760000000000005 16.05 q0.27 0.27 0.585 0.455 t0.605 0.3 t0.51 0.165 t0.3 0.05 q0.19 0 0.485 -0.015 t0.565 -0.09 t0.465 -0.245 t0.195 -0.48 q0 -0.28 -0.11 -0.445 t-0.32 -0.28 t-0.515 -0.205 t-0.685 -0.21 q-1.2 -0.32 -1.98 -0.77 t-1.235 -1.005 t-0.635 -1.195 t-0.18 -1.35 q0 -0.83 0.33 -1.51 t0.94 -1.165 t1.46 -0.75 t1.89 -0.265 q0.63 0 1.18 0.105 t1.05 0.33 t0.975 0.58 t0.945 0.845 q0.17 0.2 0.175 0.375 t-0.225 0.375 q-0.39 0.32 -0.745 0.63 t-0.735 0.69 q-0.12 0.1 -0.24 0.125 t-0.23 -0.005 t-0.21 -0.1 t-0.18 -0.17 q-0.35 -0.39 -0.8 -0.525 t-0.84 -0.135 q-0.49 0 -0.78 0.17 t-0.27 0.52 q0.02 0.26 0.195 0.405 t0.43 0.235 t0.54 0.145 t0.525 0.125 q0.9 0.29 1.65 0.63 t1.3 0.835 t0.855 1.185 t0.305 1.68 t-0.395 1.77 t-1.085 1.31 t-1.635 0.81 t-2.035 0.28 q-0.62 0 -1.26 -0.11 t-1.24 -0.355 t-1.14 -0.63 t-0.96 -0.935 q-0.11 -0.14 -0.165 -0.295 t-0.05 -0.305 t0.06 -0.275 t0.175 -0.215 l1.29 -1.29 q0.24 -0.2 0.425 -0.14 t0.475 0.34 z M60.95 5.59 q0.02 -0.18 0.14 -0.31 t0.34 -0.13 l3.46 0 q0.37 0 0.48 0.38 l2.72 9.08 l2.74 -9.08 q0.14 -0.38 0.51 -0.38 l3.42 0 q0.18 0 0.325 0.125 t0.165 0.315 q0.35 3.52 0.715 6.985 t0.715 6.985 l0 0.05 q0 0.39 -0.44 0.39 l-2.83 0 q-0.46 0 -0.48 -0.44 l-0.87 -7.73 l-2.25 7.78 q-0.02 0.1 -0.145 0.24 t-0.245 0.14 l-2.63 0 q-0.12 0 -0.255 -0.135 t-0.145 -0.245 l-2.25 -7.76 l-0.87 7.71 q-0.02 0.44 -0.49 0.44 l-2.83 0 q-0.43 0 -0.43 -0.44 z M90.66 6.23 q0.17 0.1 0.25 0.26 t-0.03 0.38 l-1.69 2.4 q-0.11 0.17 -0.235 0.195 t-0.305 -0.085 q-0.49 -0.37 -1.08 -0.57 t-1.25 -0.2 q-0.82 0 -1.51 0.31 t-1.19 0.85 t-0.78 1.26 t-0.28 1.54 t0.28 1.535 t0.78 1.25 t1.19 0.845 t1.51 0.31 q0.66 0 1.26 -0.205 t1.09 -0.575 q0.18 -0.11 0.3 -0.09 t0.24 0.18 l1.71 2.46 q0.11 0.22 0.03 0.37 t-0.25 0.25 q-0.94 0.63 -2.025 0.975 t-2.285 0.345 q-1.06 0 -2.035 -0.27 t-1.825 -0.77 t-1.545 -1.195 t-1.195 -1.54 t-0.77 -1.82 t-0.27 -2.035 t0.27 -2.035 t0.77 -1.83 t1.195 -1.555 t1.545 -1.195 t1.825 -0.77 t2.035 -0.275 q1.2 0 2.265 0.335 t2.005 0.965 z M92.61 5.59 q0 -0.2 0.135 -0.32 t0.335 -0.12 l10.77 0 q0.18 0 0.32 0.11 t0.16 0.33 l0 2.49 q0 0.18 -0.125 0.345 t-0.355 0.165 l-3.45 0 l0 10.94 q0 0.18 -0.13 0.325 t-0.34 0.145 l-2.94 0 q-0.17 0 -0.32 -0.135 t-0.15 -0.335 l0 -10.94 l-3.44 0 q-0.2 0 -0.335 -0.13 t-0.135 -0.38 l0 -2.49 z"></path></g></svg>